<mxfile host="app.diagrams.net" modified="2021-12-22T19:59:47.121Z" agent="5.0 (X11)" etag="9EdXv50ulpxIqfox6nbo" version="16.0.3" type="github" pages="4">
  <diagram id="fWEu4t-EW_wei3MwVTip" name="Class">
    <mxGraphModel dx="771" dy="437" grid="1" gridSize="10" guides="1" tooltips="1" connect="1" arrows="1" fold="1" page="1" pageScale="1" pageWidth="850" pageHeight="1100" math="0" shadow="0">
      <root>
        <mxCell id="0" />
        <mxCell id="1" parent="0" />
        <mxCell id="c93XpwLS8CslaClu3LFZ-1" value="CLoraComm" style="swimlane;fontStyle=1;align=center;verticalAlign=top;childLayout=stackLayout;horizontal=1;startSize=26;horizontalStack=0;resizeParent=1;resizeParentMax=0;resizeLast=0;collapsible=1;marginBottom=0;fillColor=#FAE5C7;strokeColor=#0F8B8D;fontColor=#143642;" parent="1" vertex="1">
          <mxGeometry x="310" y="160" width="210" height="320" as="geometry" />
        </mxCell>
        <mxCell id="c93XpwLS8CslaClu3LFZ-2" value="- freqMHz : int&#xa;- dest_addr : int&#xa;- local_addr : int&#xa;&#xa;&#xa;&#xa;&#xa;&#xa;" style="text;strokeColor=none;fillColor=none;align=left;verticalAlign=top;spacingLeft=4;spacingRight=4;overflow=hidden;rotatable=0;points=[[0,0.5],[1,0.5]];portConstraint=eastwest;fontColor=#143642;" parent="c93XpwLS8CslaClu3LFZ-1" vertex="1">
          <mxGeometry y="26" width="210" height="64" as="geometry" />
        </mxCell>
        <mxCell id="c93XpwLS8CslaClu3LFZ-3" value="" style="line;strokeWidth=1;fillColor=none;align=left;verticalAlign=middle;spacingTop=-1;spacingLeft=3;spacingRight=3;rotatable=0;labelPosition=right;points=[];portConstraint=eastwest;labelBackgroundColor=#DAD2D8;strokeColor=#0F8B8D;fontColor=#143642;" parent="c93XpwLS8CslaClu3LFZ-1" vertex="1">
          <mxGeometry y="90" width="210" height="8" as="geometry" />
        </mxCell>
        <mxCell id="c93XpwLS8CslaClu3LFZ-4" value="+ CLoraComm(IN freq : int,&#xa;                             dest : int,&#xa;                             src : int)&#xa;+ ~CLoraComm(void)&#xa;&#xa;# recvFunc(void) string&#xa;# sendFunc(IN msg : string) in&#xa;+ getLocalAddr(void) int const &#xa; &#xa;&#xa;&#xa;&#xa;" style="text;strokeColor=none;fillColor=none;align=left;verticalAlign=top;spacingLeft=4;spacingRight=4;overflow=hidden;rotatable=0;points=[[0,0.5],[1,0.5]];portConstraint=eastwest;fontColor=#143642;" parent="c93XpwLS8CslaClu3LFZ-1" vertex="1">
          <mxGeometry y="98" width="210" height="222" as="geometry" />
        </mxCell>
        <mxCell id="QjQafICjfFNIdCcySg0X-1" value="CCommunication" style="rounded=0;whiteSpace=wrap;html=1;sketch=0;fontColor=#143642;strokeColor=#0F8B8D;fillColor=#FAE5C7;fontStyle=1" parent="1" vertex="1">
          <mxGeometry x="310" y="80" width="210" height="30" as="geometry" />
        </mxCell>
        <mxCell id="QjQafICjfFNIdCcySg0X-2" value="" style="endArrow=block;endSize=16;endFill=0;html=1;rounded=0;exitX=0.5;exitY=0;exitDx=0;exitDy=0;entryX=0.5;entryY=1;entryDx=0;entryDy=0;" parent="1" source="c93XpwLS8CslaClu3LFZ-1" target="QjQafICjfFNIdCcySg0X-1" edge="1">
          <mxGeometry width="160" relative="1" as="geometry">
            <mxPoint x="510" y="174.76" as="sourcePoint" />
            <mxPoint x="600" y="175" as="targetPoint" />
          </mxGeometry>
        </mxCell>
        <mxCell id="4q7A1GU3DQohU1U9Y9Zb-1" value="&lt;div style=&quot;font-size: 11px&quot;&gt;&lt;font style=&quot;font-size: 11px&quot; color=&quot;#8A8A8A&quot;&gt;^# tSend(void*) void&lt;br&gt;&lt;/font&gt;&lt;/div&gt;&lt;div style=&quot;font-size: 11px&quot;&gt;&lt;font style=&quot;font-size: 11px&quot; color=&quot;#8A8A8A&quot;&gt;^+ getStatus(void) ConnStatus const&lt;br style=&quot;font-size: 11px&quot;&gt;&lt;/font&gt;&lt;/div&gt;&lt;div style=&quot;font-size: 11px&quot;&gt;&lt;div style=&quot;font-size: 11px&quot;&gt;&lt;font style=&quot;font-size: 11px&quot; color=&quot;#8A8A8A&quot;&gt;^+ init(IN int tprio) void&lt;/font&gt;&lt;/div&gt;&lt;font style=&quot;font-size: 11px&quot; color=&quot;#8A8A8A&quot;&gt;^+ run(void) void&lt;/font&gt;&lt;/div&gt;&lt;font style=&quot;font-size: 11px&quot; color=&quot;#8A8A8A&quot;&gt;^+ push(IN msg : string) int&lt;br style=&quot;font-size: 11px&quot;&gt;^+ send(IN msg : string) int&lt;br style=&quot;font-size: 11px&quot;&gt;^+ recv(void) string&lt;/font&gt;" style="text;html=1;align=left;verticalAlign=middle;resizable=0;points=[];autosize=1;strokeColor=none;fillColor=none;opacity=10;fontSize=11;" parent="1" vertex="1">
          <mxGeometry x="313" y="375" width="210" height="110" as="geometry" />
        </mxCell>
        <mxCell id="p3pLkMQFLFGtmMH7MZTp-1" value="&lt;br&gt;&lt;div&gt;&lt;font style=&quot;font-size: 11px&quot; color=&quot;#8A8A8A&quot;&gt;^# status : ConnStatus&lt;br&gt;&lt;/font&gt;&lt;/div&gt;" style="text;html=1;align=left;verticalAlign=middle;resizable=0;points=[];autosize=1;strokeColor=none;fillColor=none;opacity=10;fontSize=11;" parent="1" vertex="1">
          <mxGeometry x="313" y="224" width="140" height="30" as="geometry" />
        </mxCell>
      </root>
    </mxGraphModel>
  </diagram>
  <diagram id="54gmfY9uxFaU0y4bCuxx" name="Constructor">
    <mxGraphModel dx="1125" dy="1737" grid="1" gridSize="10" guides="1" tooltips="1" connect="1" arrows="1" fold="1" page="1" pageScale="1" pageWidth="850" pageHeight="1100" math="0" shadow="0">
      <root>
        <mxCell id="YE7-BCoIbk_1VqUBDQ1K-0" />
        <mxCell id="YE7-BCoIbk_1VqUBDQ1K-1" parent="YE7-BCoIbk_1VqUBDQ1K-0" />
        <mxCell id="YE7-BCoIbk_1VqUBDQ1K-2" style="edgeStyle=orthogonalEdgeStyle;curved=0;rounded=1;sketch=0;orthogonalLoop=1;jettySize=auto;html=1;exitX=0.5;exitY=1;exitDx=0;exitDy=0;entryX=0.5;entryY=0;entryDx=0;entryDy=0;fontColor=#143642;strokeColor=#A8201A;fillColor=#FAE5C7;" parent="YE7-BCoIbk_1VqUBDQ1K-1" source="YE7-BCoIbk_1VqUBDQ1K-3" edge="1" target="N3H3KkDEC-fb1jI0J59w-0">
          <mxGeometry relative="1" as="geometry">
            <mxPoint x="516.5200000000001" y="160" as="targetPoint" />
          </mxGeometry>
        </mxCell>
        <mxCell id="YE7-BCoIbk_1VqUBDQ1K-3" value="&lt;div&gt;CLoraComm&lt;/div&gt;&lt;div&gt;&lt;br&gt;&lt;/div&gt;&lt;div&gt;IN: &lt;span style=&quot;font-weight: normal&quot;&gt;&lt;i&gt;freq, dest,&lt;/i&gt;&lt;/span&gt;&lt;/div&gt;&lt;div&gt;&lt;span style=&quot;font-weight: normal&quot;&gt;&lt;i&gt;src&lt;/i&gt;&lt;/span&gt;&lt;br&gt;&lt;/div&gt;" style="ellipse;whiteSpace=wrap;html=1;fillColor=#FAE5C7;strokeColor=#0F8B8D;fontColor=#143642;fontStyle=1" parent="YE7-BCoIbk_1VqUBDQ1K-1" vertex="1">
          <mxGeometry x="452.25" y="-10" width="125.5" height="70" as="geometry" />
        </mxCell>
        <mxCell id="YE7-BCoIbk_1VqUBDQ1K-4" value="end" style="ellipse;whiteSpace=wrap;html=1;fillColor=#FAE5C7;strokeColor=#0F8B8D;fontColor=#143642;fontStyle=1" parent="YE7-BCoIbk_1VqUBDQ1K-1" vertex="1">
          <mxGeometry x="492.27" y="510" width="48" height="30" as="geometry" />
        </mxCell>
        <mxCell id="YE7-BCoIbk_1VqUBDQ1K-5" style="edgeStyle=orthogonalEdgeStyle;rounded=1;orthogonalLoop=1;jettySize=auto;html=1;exitX=0.5;exitY=1;exitDx=0;exitDy=0;entryX=0.5;entryY=0;entryDx=0;entryDy=0;fontSize=11;strokeColor=#A8201A;" parent="YE7-BCoIbk_1VqUBDQ1K-1" source="YE7-BCoIbk_1VqUBDQ1K-6" target="YE7-BCoIbk_1VqUBDQ1K-11" edge="1">
          <mxGeometry relative="1" as="geometry" />
        </mxCell>
        <mxCell id="YE7-BCoIbk_1VqUBDQ1K-6" value="LoraBegin(&lt;i&gt;&lt;span style=&quot;font-weight: normal&quot;&gt;freq&lt;/span&gt;&lt;/i&gt;)" style="shape=process;whiteSpace=wrap;html=1;backgroundOutline=1;rounded=0;sketch=0;fontColor=#143642;strokeColor=#0F8B8D;fillColor=#FAE5C7;fontStyle=1" parent="YE7-BCoIbk_1VqUBDQ1K-1" vertex="1">
          <mxGeometry x="440" y="257" width="151.27" height="33" as="geometry" />
        </mxCell>
        <mxCell id="YE7-BCoIbk_1VqUBDQ1K-7" style="edgeStyle=orthogonalEdgeStyle;rounded=1;orthogonalLoop=1;jettySize=auto;html=1;exitX=0.5;exitY=0;exitDx=0;exitDy=0;fontSize=11;strokeColor=#A8201A;startArrow=none;" parent="YE7-BCoIbk_1VqUBDQ1K-1" source="YE7-BCoIbk_1VqUBDQ1K-16" edge="1">
          <mxGeometry relative="1" as="geometry">
            <mxPoint x="525.43" y="216.9999999999999" as="targetPoint" />
            <Array as="points">
              <mxPoint x="690.43" y="217" />
            </Array>
          </mxGeometry>
        </mxCell>
        <mxCell id="YE7-BCoIbk_1VqUBDQ1K-8" style="edgeStyle=orthogonalEdgeStyle;rounded=1;orthogonalLoop=1;jettySize=auto;html=1;exitX=1;exitY=0.5;exitDx=0;exitDy=0;entryX=0.5;entryY=1;entryDx=0;entryDy=0;fontSize=11;strokeColor=#A8201A;" parent="YE7-BCoIbk_1VqUBDQ1K-1" source="YE7-BCoIbk_1VqUBDQ1K-11" target="bH7hWhNahAo54aLvGXgK-0" edge="1">
          <mxGeometry relative="1" as="geometry" />
        </mxCell>
        <mxCell id="YE7-BCoIbk_1VqUBDQ1K-9" value="No" style="edgeLabel;html=1;align=center;verticalAlign=middle;resizable=0;points=[];fontSize=11;" parent="YE7-BCoIbk_1VqUBDQ1K-8" vertex="1" connectable="0">
          <mxGeometry x="-0.9005" y="-2" relative="1" as="geometry">
            <mxPoint as="offset" />
          </mxGeometry>
        </mxCell>
        <mxCell id="YE7-BCoIbk_1VqUBDQ1K-10" style="edgeStyle=orthogonalEdgeStyle;rounded=1;orthogonalLoop=1;jettySize=auto;html=1;exitX=0;exitY=0.5;exitDx=0;exitDy=0;strokeColor=#A8201A;" parent="YE7-BCoIbk_1VqUBDQ1K-1" source="YE7-BCoIbk_1VqUBDQ1K-11" edge="1">
          <mxGeometry relative="1" as="geometry">
            <mxPoint x="516" y="450" as="targetPoint" />
          </mxGeometry>
        </mxCell>
        <mxCell id="Cegc4bRx0cS60RdjWEaH-0" value="Yes" style="edgeLabel;html=1;align=center;verticalAlign=middle;resizable=0;points=[];" parent="YE7-BCoIbk_1VqUBDQ1K-10" vertex="1" connectable="0">
          <mxGeometry x="-0.8138" y="3" relative="1" as="geometry">
            <mxPoint as="offset" />
          </mxGeometry>
        </mxCell>
        <mxCell id="YE7-BCoIbk_1VqUBDQ1K-11" value="&lt;div&gt;Lora&lt;/div&gt;&lt;div&gt;Initialized ?&lt;/div&gt;" style="rhombus;whiteSpace=wrap;html=1;rounded=0;sketch=0;fontColor=#143642;strokeColor=#0F8B8D;fillColor=#FAE5C7;" parent="YE7-BCoIbk_1VqUBDQ1K-1" vertex="1">
          <mxGeometry x="467.9000000000001" y="310" width="98" height="90" as="geometry" />
        </mxCell>
        <mxCell id="YE7-BCoIbk_1VqUBDQ1K-12" style="edgeStyle=orthogonalEdgeStyle;rounded=1;orthogonalLoop=1;jettySize=auto;html=1;exitX=0.5;exitY=1;exitDx=0;exitDy=0;entryX=0.5;entryY=0;entryDx=0;entryDy=0;fontSize=11;strokeColor=#A8201A;startArrow=none;" parent="YE7-BCoIbk_1VqUBDQ1K-1" source="YE7-BCoIbk_1VqUBDQ1K-15" target="YE7-BCoIbk_1VqUBDQ1K-6" edge="1">
          <mxGeometry relative="1" as="geometry" />
        </mxCell>
        <mxCell id="YE7-BCoIbk_1VqUBDQ1K-13" style="edgeStyle=orthogonalEdgeStyle;rounded=1;orthogonalLoop=1;jettySize=auto;html=1;exitX=0.5;exitY=1;exitDx=0;exitDy=0;entryX=0.5;entryY=0;entryDx=0;entryDy=0;strokeColor=#A8201A;" parent="YE7-BCoIbk_1VqUBDQ1K-1" source="YE7-BCoIbk_1VqUBDQ1K-14" target="YE7-BCoIbk_1VqUBDQ1K-15" edge="1">
          <mxGeometry relative="1" as="geometry" />
        </mxCell>
        <mxCell id="YE7-BCoIbk_1VqUBDQ1K-14" value="ConfigPins" style="shape=process;whiteSpace=wrap;html=1;backgroundOutline=1;rounded=0;sketch=0;fontColor=#143642;strokeColor=#0F8B8D;fillColor=#FAE5C7;fontStyle=1" parent="YE7-BCoIbk_1VqUBDQ1K-1" vertex="1">
          <mxGeometry x="440" y="160" width="151.27" height="40" as="geometry" />
        </mxCell>
        <mxCell id="YE7-BCoIbk_1VqUBDQ1K-15" value="" style="ellipse;whiteSpace=wrap;html=1;aspect=fixed;rounded=0;sketch=0;fontColor=#143642;strokeColor=#0F8B8D;fillColor=#FAE5C7;" parent="YE7-BCoIbk_1VqUBDQ1K-1" vertex="1">
          <mxGeometry x="506.27" y="220" width="20" height="20" as="geometry" />
        </mxCell>
        <mxCell id="YE7-BCoIbk_1VqUBDQ1K-16" value="&lt;b&gt;Log&lt;/b&gt; connection error" style="rounded=0;whiteSpace=wrap;html=1;sketch=0;fontColor=#143642;strokeColor=#0F8B8D;fillColor=#FAE5C7;" parent="YE7-BCoIbk_1VqUBDQ1K-1" vertex="1">
          <mxGeometry x="630.43" y="250" width="120.05" height="33" as="geometry" />
        </mxCell>
        <mxCell id="Cegc4bRx0cS60RdjWEaH-3" style="edgeStyle=orthogonalEdgeStyle;rounded=1;orthogonalLoop=1;jettySize=auto;html=1;exitX=0.5;exitY=1;exitDx=0;exitDy=0;entryX=0.5;entryY=0;entryDx=0;entryDy=0;strokeColor=#A8201A;" parent="YE7-BCoIbk_1VqUBDQ1K-1" source="Cegc4bRx0cS60RdjWEaH-2" target="YE7-BCoIbk_1VqUBDQ1K-4" edge="1">
          <mxGeometry relative="1" as="geometry" />
        </mxCell>
        <mxCell id="Cegc4bRx0cS60RdjWEaH-2" value="&lt;i&gt;status&lt;/i&gt; &amp;lt;- ONLINE" style="rounded=0;whiteSpace=wrap;html=1;sketch=0;fontColor=#143642;strokeColor=#0F8B8D;fillColor=#FAE5C7;" parent="YE7-BCoIbk_1VqUBDQ1K-1" vertex="1">
          <mxGeometry x="441.27" y="450" width="150" height="30" as="geometry" />
        </mxCell>
        <mxCell id="bH7hWhNahAo54aLvGXgK-1" style="edgeStyle=orthogonalEdgeStyle;rounded=1;orthogonalLoop=1;jettySize=auto;html=1;exitX=0.5;exitY=0;exitDx=0;exitDy=0;entryX=0.5;entryY=1;entryDx=0;entryDy=0;strokeColor=#A8201A;" parent="YE7-BCoIbk_1VqUBDQ1K-1" source="bH7hWhNahAo54aLvGXgK-0" target="YE7-BCoIbk_1VqUBDQ1K-16" edge="1">
          <mxGeometry relative="1" as="geometry" />
        </mxCell>
        <mxCell id="bH7hWhNahAo54aLvGXgK-0" value="&lt;i&gt;status&lt;/i&gt; &amp;lt;- ERROR" style="rounded=0;whiteSpace=wrap;html=1;sketch=0;fontColor=#143642;strokeColor=#0F8B8D;fillColor=#FAE5C7;" parent="YE7-BCoIbk_1VqUBDQ1K-1" vertex="1">
          <mxGeometry x="630.48" y="300" width="120" height="30" as="geometry" />
        </mxCell>
        <mxCell id="N3H3KkDEC-fb1jI0J59w-1" style="edgeStyle=orthogonalEdgeStyle;rounded=0;orthogonalLoop=1;jettySize=auto;html=1;exitX=0.5;exitY=1;exitDx=0;exitDy=0;entryX=0.5;entryY=0;entryDx=0;entryDy=0;strokeColor=#A8201A;" edge="1" parent="YE7-BCoIbk_1VqUBDQ1K-1" source="N3H3KkDEC-fb1jI0J59w-0" target="YE7-BCoIbk_1VqUBDQ1K-14">
          <mxGeometry relative="1" as="geometry" />
        </mxCell>
        <mxCell id="N3H3KkDEC-fb1jI0J59w-0" value="&lt;div&gt;freqMHz &amp;lt;- freq&lt;/div&gt;&lt;div&gt;dest_addr &amp;lt;- dest&lt;/div&gt;&lt;div&gt;local_addr &amp;lt;- src&lt;br&gt;&lt;/div&gt;" style="rounded=0;whiteSpace=wrap;html=1;sketch=0;fontColor=#143642;strokeColor=#0F8B8D;fillColor=#FAE5C7;fontStyle=2" vertex="1" parent="YE7-BCoIbk_1VqUBDQ1K-1">
          <mxGeometry x="440" y="80" width="150" height="57" as="geometry" />
        </mxCell>
      </root>
    </mxGraphModel>
  </diagram>
  <diagram id="0hnrLzMrPIrvC21Ddi-R" name="recvFunc">
    <mxGraphModel dx="1350" dy="764" grid="1" gridSize="10" guides="1" tooltips="1" connect="1" arrows="1" fold="1" page="1" pageScale="1" pageWidth="850" pageHeight="1100" math="0" shadow="0">
      <root>
        <mxCell id="DOHKxH0JR9qbzWTHp2MG-0" />
        <mxCell id="DOHKxH0JR9qbzWTHp2MG-1" parent="DOHKxH0JR9qbzWTHp2MG-0" />
        <mxCell id="e-vAVZq-TQv7bJ1IQasg-0" style="edgeStyle=orthogonalEdgeStyle;curved=0;rounded=1;sketch=0;orthogonalLoop=1;jettySize=auto;html=1;exitX=0.5;exitY=1;exitDx=0;exitDy=0;entryX=0.5;entryY=0;entryDx=0;entryDy=0;fontColor=#143642;strokeColor=#A8201A;fillColor=#FAE5C7;" parent="DOHKxH0JR9qbzWTHp2MG-1" source="e-vAVZq-TQv7bJ1IQasg-1" edge="1">
          <mxGeometry relative="1" as="geometry">
            <mxPoint x="425.3699999999999" y="170" as="targetPoint" />
          </mxGeometry>
        </mxCell>
        <mxCell id="e-vAVZq-TQv7bJ1IQasg-1" value="&lt;div&gt;RecvFunc&lt;/div&gt;&lt;div&gt;&lt;br&gt;&lt;/div&gt;&lt;div&gt;OUT: &lt;span style=&quot;font-weight: normal&quot;&gt;&lt;i&gt;message&lt;/i&gt;&lt;/span&gt;&lt;br&gt;&lt;/div&gt;" style="ellipse;whiteSpace=wrap;html=1;fillColor=#FAE5C7;strokeColor=#0F8B8D;fontColor=#143642;fontStyle=1" parent="DOHKxH0JR9qbzWTHp2MG-1" vertex="1">
          <mxGeometry x="362.37" y="70" width="125.5" height="60" as="geometry" />
        </mxCell>
        <mxCell id="e-vAVZq-TQv7bJ1IQasg-4" value="Returns &lt;i&gt;message&lt;/i&gt;" style="edgeStyle=orthogonalEdgeStyle;curved=0;rounded=1;sketch=0;orthogonalLoop=1;jettySize=auto;html=1;fontColor=#143642;strokeColor=#A8201A;fillColor=#FAE5C7;entryX=0.5;entryY=0;entryDx=0;entryDy=0;exitX=0.5;exitY=1;exitDx=0;exitDy=0;" parent="DOHKxH0JR9qbzWTHp2MG-1" source="e-vAVZq-TQv7bJ1IQasg-7" target="e-vAVZq-TQv7bJ1IQasg-8" edge="1">
          <mxGeometry relative="1" as="geometry">
            <mxPoint x="425.25" y="269.9999999999999" as="sourcePoint" />
            <mxPoint x="425" y="320" as="targetPoint" />
          </mxGeometry>
        </mxCell>
        <mxCell id="e-vAVZq-TQv7bJ1IQasg-7" value="&lt;b&gt;LoraReceive(&lt;/b&gt;&lt;i&gt;local_addr&lt;/i&gt;&lt;b&gt;)&lt;/b&gt;" style="shape=process;whiteSpace=wrap;html=1;backgroundOutline=1;rounded=0;sketch=0;fontColor=#143642;strokeColor=#0F8B8D;fillColor=#FAE5C7;" parent="DOHKxH0JR9qbzWTHp2MG-1" vertex="1">
          <mxGeometry x="330.13" y="170" width="190" height="40" as="geometry" />
        </mxCell>
        <mxCell id="e-vAVZq-TQv7bJ1IQasg-8" value="End" style="ellipse;whiteSpace=wrap;html=1;fillColor=#FAE5C7;strokeColor=#0F8B8D;fontColor=#143642;fontStyle=1" parent="DOHKxH0JR9qbzWTHp2MG-1" vertex="1">
          <mxGeometry x="396" y="260" width="58.25" height="40" as="geometry" />
        </mxCell>
      </root>
    </mxGraphModel>
  </diagram>
  <diagram id="gWrtyDDD40syY5j1oNSI" name="sendFunc">
    <mxGraphModel dx="1350" dy="764" grid="1" gridSize="10" guides="1" tooltips="1" connect="1" arrows="1" fold="1" page="1" pageScale="1" pageWidth="850" pageHeight="1100" math="0" shadow="0">
      <root>
        <mxCell id="RDyHwdaBcesgnNNwkRJs-0" />
        <mxCell id="RDyHwdaBcesgnNNwkRJs-1" parent="RDyHwdaBcesgnNNwkRJs-0" />
        <mxCell id="wjFGaoBwL620pTEoWvO4-0" style="edgeStyle=orthogonalEdgeStyle;rounded=1;orthogonalLoop=1;jettySize=auto;html=1;exitX=0.5;exitY=1;exitDx=0;exitDy=0;entryX=0.5;entryY=0;entryDx=0;entryDy=0;strokeColor=#A8201A;" parent="RDyHwdaBcesgnNNwkRJs-1" source="HvuOJu0QvIcgFktLaoCL-1" target="HvuOJu0QvIcgFktLaoCL-3" edge="1">
          <mxGeometry relative="1" as="geometry" />
        </mxCell>
        <mxCell id="HvuOJu0QvIcgFktLaoCL-1" value="&lt;div&gt;SendFunc&lt;/div&gt;&lt;div&gt;&lt;br&gt;&lt;/div&gt;&lt;div&gt;IN:&lt;i&gt; &lt;span style=&quot;font-weight: normal&quot;&gt;msg&lt;/span&gt;&lt;/i&gt;&lt;span style=&quot;font-weight: normal&quot;&gt;&lt;/span&gt;&lt;br&gt;&lt;/div&gt;" style="ellipse;whiteSpace=wrap;html=1;fillColor=#FAE5C7;strokeColor=#0F8B8D;fontColor=#143642;fontStyle=1" parent="RDyHwdaBcesgnNNwkRJs-1" vertex="1">
          <mxGeometry x="362.37" y="70" width="125.5" height="60" as="geometry" />
        </mxCell>
        <mxCell id="HvuOJu0QvIcgFktLaoCL-2" value="" style="edgeStyle=orthogonalEdgeStyle;curved=0;rounded=1;sketch=0;orthogonalLoop=1;jettySize=auto;html=1;fontColor=#143642;strokeColor=#A8201A;fillColor=#FAE5C7;entryX=0.5;entryY=0;entryDx=0;entryDy=0;exitX=0.5;exitY=1;exitDx=0;exitDy=0;" parent="RDyHwdaBcesgnNNwkRJs-1" source="HvuOJu0QvIcgFktLaoCL-3" target="HvuOJu0QvIcgFktLaoCL-4" edge="1">
          <mxGeometry relative="1" as="geometry">
            <mxPoint x="425.25" y="269.9999999999999" as="sourcePoint" />
            <mxPoint x="425" y="320" as="targetPoint" />
          </mxGeometry>
        </mxCell>
        <mxCell id="HvuOJu0QvIcgFktLaoCL-3" value="&lt;b&gt;LoraSend(&lt;/b&gt;&lt;i&gt;dest_addr&lt;/i&gt;&lt;b&gt;, &lt;/b&gt;&lt;i&gt;local_addr, msg&lt;/i&gt;&lt;b&gt;)&lt;/b&gt;" style="shape=process;whiteSpace=wrap;html=1;backgroundOutline=1;rounded=0;sketch=0;fontColor=#143642;strokeColor=#0F8B8D;fillColor=#FAE5C7;" parent="RDyHwdaBcesgnNNwkRJs-1" vertex="1">
          <mxGeometry x="330" y="160" width="190.37" height="40" as="geometry" />
        </mxCell>
        <mxCell id="HvuOJu0QvIcgFktLaoCL-4" value="End" style="ellipse;whiteSpace=wrap;html=1;fillColor=#FAE5C7;strokeColor=#0F8B8D;fontColor=#143642;fontStyle=1" parent="RDyHwdaBcesgnNNwkRJs-1" vertex="1">
          <mxGeometry x="396" y="240" width="58.25" height="40" as="geometry" />
        </mxCell>
      </root>
    </mxGraphModel>
  </diagram>
</mxfile>
